HIERARCHY
ROOT Hips
{
    OFFSET 0.000000 0.000000 0.000000
    CHANNELS 6 Xposition Yposition Zposition Zrotation Xrotation Yrotation
    JOINT Spine
    {
        OFFSET -0.000000 7.587367 0.000000
        CHANNELS 3 Zrotation Xrotation Yrotation
        JOINT Spine1
        {
            OFFSET -0.000000 21.665461 0.000000
            CHANNELS 3 Zrotation Xrotation Yrotation
            JOINT Neck
            {
                OFFSET -0.000000 21.576487 1.961499
                CHANNELS 3 Zrotation Xrotation Yrotation
                JOINT Head
                {
                    OFFSET -0.000000 12.954041 -1.850577
                    CHANNELS 3 Zrotation Xrotation Yrotation
                    End Site
                    {
                        OFFSET -0.000000 23.132217 0.000000
                    }
                }
            }
            JOINT LeftShoulder
            {
                OFFSET 3.736380 18.865139 -0.237605
                CHANNELS 3 Zrotation Xrotation Yrotation
                JOINT LeftArm
                {
                    OFFSET 13.340759 0.000000 0.000000
                    CHANNELS 3 Zrotation Xrotation Yrotation
                    JOINT LeftForeArm
                    {
                        OFFSET 34.199600 0.000000 0.000000
                        CHANNELS 3 Zrotation Xrotation Yrotation
                        JOINT LeftHand
                        {
                            OFFSET 18.347805 0.000000 0.000000
                            CHANNELS 3 Zrotation Xrotation Yrotation
                            End Site
                            {
                                OFFSET 13.879331 0.000000 0.000000
                            }
                        }
                    }
                }
            }
            JOINT RightShoulder
            {
                OFFSET -3.644239 18.865139 -0.237605
                CHANNELS 3 Zrotation Xrotation Yrotation
                JOINT RightArm
                {
                    OFFSET -13.340759 0.000000 0.000000
                    CHANNELS 3 Zrotation Xrotation Yrotation
                    JOINT RightForeArm
                    {
                        OFFSET -34.199600 0.000000 0.000000
                        CHANNELS 3 Zrotation Xrotation Yrotation
                        JOINT RightHand
                        {
                            OFFSET -18.347805 0.000000 0.000000
                            CHANNELS 3 Zrotation Xrotation Yrotation
                            End Site
                            {
                                OFFSET -13.879331 0.000000 0.000000
                            }
                        }
                    }
                }
            }
        }
    }
    JOINT LeftUpLeg
    {
        OFFSET 9.252887 0.000000 0.000000
        CHANNELS 3 Zrotation Xrotation Yrotation
        JOINT LeftLeg
        {
            OFFSET -0.000000 -37.275230 0.000000
            CHANNELS 3 Zrotation Xrotation Yrotation
            JOINT LeftFoot
            {
                OFFSET -0.000000 -38.159729 0.000000
                CHANNELS 3 Zrotation Xrotation Yrotation
                JOINT LeftToeBase
                {
                    OFFSET -0.000000 -6.014376 13.879331
                    CHANNELS 3 Zrotation Xrotation Yrotation
                    End Site
                    {
                        OFFSET -0.000000 0.000000 3.701154
                    }
                }
            }
        }
    }
    JOINT RightUpLeg
    {
        OFFSET -9.252887 0.000000 0.000000
        CHANNELS 3 Zrotation Xrotation Yrotation
        JOINT RightLeg
        {
            OFFSET -0.000000 -37.275230 0.000000
            CHANNELS 3 Zrotation Xrotation Yrotation
            JOINT RightFoot
            {
                OFFSET -0.000000 -38.159729 0.000000
                CHANNELS 3 Zrotation Xrotation Yrotation
                JOINT RightToeBase
                {
                    OFFSET -0.000000 -6.014376 13.879331
                    CHANNELS 3 Zrotation Xrotation Yrotation
                    End Site
                    {
                        OFFSET -0.000000 0.000000 3.701154
                    }
                }
            }
        }
    }
}
MOTION
Frames:    12
Frame Time:    0.010000
4.686815    74.574127    -24.654793    1.324948    5.713896    -15.295122    3.673208    10.321323    11.439449    -18.830307    -9.720950    10.155603    9.149956    3.345410    -1.648870    4.888694    6.826468    -2.396582    13.523674    10.439900    -9.869533    -20.619345    17.608837    -93.884010    34.632561    -39.608315    -105.063789    19.731768    5.696726    -3.263231    -5.894063    1.624295    5.738247    0.553523    12.956141    47.309189    -38.933186    -34.649353    49.754559    33.380512    -20.222937    -8.759274    21.518497    -40.834080    6.030253    -7.536613    28.729750    2.583179    -19.654657    14.480643    12.226779    0.000000    0.000000    0.000000    -19.896139    14.320247    -16.285130    3.614064    8.560784    -10.377278    29.736334    -11.218180    -42.981266    0.000000    0.000000    0.000000    
4.635762    74.526344    -24.764534    1.331267    6.106546    -14.061714    5.454309    10.455550    12.344688    -21.645092    -8.824598    11.153912    8.332181    1.540718    -2.945288    5.768448    8.190245    -3.779991    13.565733    9.228959    -9.454347    -18.871141    18.681698    -94.882050    33.070217    -39.757347    -107.480965    22.693323    5.049872    -3.711329    -6.975335    1.928698    6.126908    -4.434094    14.972734    47.970612    -39.918011    -32.146587    36.876411    32.970631    -20.542847    -3.247625    21.256094    -41.527748    5.913977    -7.673285    28.330122    2.690722    -19.429832    15.207584    11.826656    0.000000    0.000000    0.000000    -19.449963    14.467439    -17.620056    3.504404    8.582713    -10.166298    31.790981    -12.202345    -42.637737    0.000000    0.000000    0.000000    
4.552066    74.463486    -24.877682    1.222845    6.516645    -12.927052    6.878322    10.325100    13.143775    -23.640676    -7.524123    12.189131    7.337676    -0.602898    -4.219712    6.750719    9.777041    -5.138326    13.578504    7.787824    -8.691094    -17.411854    19.794415    -95.800911    31.663698    -39.649948    -109.458061    24.722261    4.439914    -4.443323    -8.305941    1.137376    6.339761    -7.637250    15.657427    48.584702    -35.379826    -28.664631    27.997047    31.199001    -19.977484    1.486124    21.228863    -42.205128    5.801425    -7.909212    28.007677    2.798822    -19.293358    15.754620    11.736889    0.000000    0.000000    0.000000    -18.920519    14.506411    -18.936417    3.417160    8.687859    -10.333710    32.109882    -12.197753    -42.276058    0.000000    0.000000    0.000000    
4.455954    74.400314    -24.968191    1.031408    6.873065    -11.863347    7.557581    10.153542    13.916859    -24.145302    -6.608998    13.174202    5.961704    -2.080316    -5.514094    7.629450    11.057131    -6.390106    13.156820    6.992575    -8.152096    -16.025532    20.696968    -96.717026    30.751394    -39.644512    -110.764839    25.451677    3.875663    -5.291646    -9.658693    0.051504    6.977262    -9.176884    14.727571    48.488503    -26.973417    -24.467939    21.988155    28.457424    -18.342659    4.886720    21.254780    -42.747280    5.547570    -8.170638    27.610413    3.146662    -19.284758    16.190889    11.780542    0.000000    0.000000    0.000000    -18.365095    14.492219    -20.467552    3.282955    8.904808    -10.552950    32.496559    -12.053026    -41.741096    0.000000    0.000000    0.000000    
4.335617    74.357536    -25.033569    0.879695    7.150043    -10.881919    7.906132    10.196084    14.603270    -24.653959    -6.275873    13.936953    5.646694    -2.874384    -6.698057    7.792554    11.669728    -7.647771    13.513675    6.604061    -7.691696    -15.604325    21.329136    -97.499786    29.619749    -39.105606    -112.067947    25.290785    3.574856    -6.218907    -10.090848    -0.867795    7.556338    -10.206867    12.647637    48.304043    -17.651274    -19.276556    16.609028    25.547918    -15.301784    6.899754    21.224022    -43.161182    5.257451    -8.437987    27.166233    3.643758    -19.172863    16.727686    11.779854    0.000000    0.000000    0.000000    -17.866419    14.497635    -21.929834    3.155050    9.134745    -10.709357    32.757332    -11.927402    -41.342316    0.000000    0.000000    0.000000    
4.227776    74.324074    -25.062227    0.804623    7.372937    -10.095073    7.545833    10.695437    15.299809    -24.099813    -7.531456    14.397241    5.071183    -1.549264    -7.775576    7.820391    10.975120    -8.562380    13.085579    7.416199    -7.941831    -15.184116    21.608961    -97.452713    27.844532    -37.415859    -113.836502    28.032904    3.694467    -7.271571    -10.524948    -0.009904    8.546377    -10.563157    9.591786    48.400772    -10.318369    -13.097634    10.036396    24.479023    -10.537803    7.855598    21.069918    -43.346615    5.045854    -8.499215    26.541323    4.269142    -19.039730    17.267208    11.264199    0.000000    0.000000    0.000000    -17.537819    14.452679    -23.207695    3.068207    9.397700    -10.804771    32.769131    -11.769965    -41.012070    0.000000    0.000000    0.000000    
4.098484    74.312881    -25.053957    0.770245    7.561691    -9.404985    7.113139    10.982749    15.766420    -23.259663    -8.155314    14.769947    4.217758    -0.819825    -8.557633    7.753922    10.211044    -9.162322    12.596938    7.730230    -7.637571    -15.014170    21.781189    -97.523651    28.234201    -38.800148    -113.676758    19.915934    3.098445    -7.066882    -11.750668    0.767446    9.174884    -9.118499    4.594945    49.170300    -2.911715    -5.727166    2.605703    23.078829    -3.751741    9.362929    20.973272    -43.490875    4.877394    -8.655585    26.024672    4.695056    -18.979650    17.731310    10.959040    0.000000    0.000000    0.000000    -17.265343    14.443457    -24.292879    3.029462    9.610323    -10.787603    32.646755    -11.676054    -40.845654    0.000000    0.000000    0.000000    
3.934595    74.320877    -25.015205    0.779009    7.716286    -8.838310    6.764808    11.230289    15.965251    -22.740206    -8.631131    14.892314    3.511605    -0.004058    -8.982396    7.839841    8.953172    -9.377419    12.178064    7.873285    -6.912733    -15.038242    21.794056    -97.275955    27.167395    -37.712727    -114.446777    18.987963    3.128780    -7.802148    -12.848131    1.270689    9.763087    -6.627356    -0.500914    50.647556    2.253708    -2.511975    -4.193755    22.308912    -0.814091    8.182022    20.906137    -43.566734    4.894865    -8.735600    25.602079    4.962488    -18.963438    18.181469    10.776472    0.000000    0.000000    0.000000    -17.006477    14.459328    -24.977900    2.973426    9.733712    -10.907100    32.549549    -11.603527    -40.737984    0.000000    0.000000    0.000000    
3.776823    74.330017    -24.930511    0.883307    7.813333    -8.400839    6.431824    11.167550    16.040232    -22.486769    -8.520291    14.972930    3.053003    0.797325    -9.170637    8.237933    7.228636    -9.332675    12.156315    7.816642    -6.208391    -14.719214    21.654318    -97.178169    27.118185    -37.554951    -114.056870    16.954437    2.927108    -8.326359    -13.543417    1.257554    10.072315    -3.544083    -4.653790    52.785332    4.171945    -2.092512    -11.092928    22.482416    0.053001    8.740811    20.808834    -43.536068    5.000476    -8.854985    25.209141    5.180842    -18.930475    18.521973    10.690037    0.000000    0.000000    0.000000    -16.928570    14.486742    -25.438574    2.964919    9.905583    -10.919246    32.413288    -11.631441    -40.648472    0.000000    0.000000    0.000000    
3.666411    74.347816    -24.850849    1.022426    7.855437    -7.975567    6.315735    10.894320    15.836164    -22.576000    -7.873677    14.865053    2.701752    1.374973    -9.117368    8.992227    5.446091    -9.012872    12.334279    7.771017    -5.520275    -14.619938    21.079527    -96.778694    26.966610    -37.059486    -113.416100    17.166927    2.536335    -9.097420    -14.118686    0.678176    9.970578    0.489340    -8.384509    54.276024    4.008073    -3.299226    -13.186018    21.187912    -1.014807    9.721639    20.505775    -43.562241    4.789336    -8.921803    24.941442    5.568205    -18.950045    18.894621    10.572467    0.000000    0.000000    0.000000    -16.970270    14.576363    -25.340723    3.113185    10.052135    -11.073365    32.212372    -11.766011    -40.803307    0.000000    0.000000    0.000000    
3.463309    74.349106    -24.706978    1.055749    7.793877    -7.686272    6.083537    10.393019    15.528131    -22.539455    -6.952639    14.694840    2.654545    1.699710    -8.904964    9.747612    4.030682    -8.584829    12.801832    7.580420    -5.055954    -14.746644    20.530188    -96.231308    26.987736    -36.568413    -112.480751    18.177401    2.157567    -9.733895    -14.201373    -0.119026    9.592291    3.971054    -10.837914    54.926731    2.914602    -5.123750    -11.003600    20.090738    -2.782150    11.625122    20.526173    -43.467449    4.994314    -8.988232    24.906271    5.727663    -18.880219    19.132927    10.263688    0.000000    0.000000    0.000000    -16.855804    14.821002    -25.094002    3.193885    10.090580    -11.145662    32.380325    -12.060756    -40.908062    0.000000    0.000000    0.000000    
3.339611    74.357185    -24.583860    1.078026    7.663705    -7.563263    5.933599    9.962012    15.105472    -22.583750    -6.119025    14.400165    2.814310    1.852490    -8.527246    10.249012    3.142193    -8.074831    13.248171    7.327574    -4.806317    -14.816300    20.069553    -95.419144    29.307081    -36.030876    -110.023857    19.216839    4.869840    -8.499306    -14.108076    -0.801290    9.128079    7.725587    -12.935045    55.280472    1.662150    -6.838657    -5.772490    18.727396    -4.730683    12.292994    20.506847    -43.372894    5.073638    -9.016128    25.047625    5.930530    -18.837410    19.258942    10.035479    0.000000    0.000000    0.000000    -16.900513    15.041584    -24.606926    3.364774    10.154413    -11.284415    32.289501    -12.217679    -41.063976    0.000000    0.000000    0.000000    
